# xmcd
#
# Track frame offsets:
#	150
#	28861
#	58889
#	74035
#	105656
#	154289
#	191011
#	216189
#
# Disc length: 3328 seconds
#
# Revision: 1
# Processed by: cddbd v1.5.1PL2 Copyright (c) Steve Scherf et al.
# Submitted via: audiograbber 1.83.01
#
DISCID=7d0cfe08
DTITLE=Roy Herrington and the Roadhounds - R and B live from Hell
DYEAR=1999
DGENRE=Blues
TTITLE0=TV Mama
TTITLE1=Messin' with the Kid
TTITLE2=You don't love me
TTITLE3=The Jungle Grind
TTITLE4=Born in West Yorkshire
TTITLE5=Love to you
TTITLE6=You're the one
TTITLE7=Lonely nights
EXTD=
EXTT0=
EXTT1=
EXTT2=
EXTT3=
EXTT4=
EXTT5=
EXTT6=
EXTT7=
PLAYORDER=
